<?xml version="1.0" standalone="no"?><!DOCTYPE svg PUBLIC "-//W3C//DTD SVG 1.1//EN" "http://www.w3.org/Graphics/SVG/1.1/DTD/svg11.dtd"><svg t="1661940650974" class="icon" viewBox="0 0 1024 1024" version="1.1" xmlns="http://www.w3.org/2000/svg" p-id="2695" xmlns:xlink="http://www.w3.org/1999/xlink" width="200" height="200"><path d="M512 837.12L255.6928 950.0672c-14.336 6.3488-31.1296-0.2048-37.4784-14.5408-1.9456-4.5056-2.7648-9.4208-2.2528-14.336l28.16-278.6304-186.5728-208.896c-10.4448-11.6736-9.4208-29.696 2.2528-40.1408 3.6864-3.2768 8.0896-5.5296 12.9024-6.5536L346.5216 327.68 487.424 85.7088c7.8848-13.6192 25.2928-18.1248 38.912-10.24 4.3008 2.4576 7.7824 6.0416 10.24 10.24L677.4784 327.68l273.7152 59.2896c15.36 3.2768 25.088 18.432 21.8112 33.792-1.024 4.8128-3.2768 9.216-6.5536 12.9024l-186.6752 208.896L807.936 921.1904c1.536 15.6672-9.8304 29.5936-25.3952 31.1296-4.9152 0.512-9.8304-0.3072-14.336-2.2528L512 837.12z" fill="#EBFF00" p-id="2696"></path></svg>